<svg fill="white" xmlns="http://www.w3.org/2000/svg" viewBox="0 0 38.28 32.82"><title>Varlık 1</title><g id="katman_2" data-name="katman 2"><g id="katman_1-2" data-name="katman 1"><path d="M35.71,6.81a17.21,17.21,0,0,0-7-5A24.87,24.87,0,0,0,19.14,0a25.55,25.55,0,0,0-7.43,1.08A20.88,20.88,0,0,0,5.6,4,14.61,14.61,0,0,0,1.51,8.36,10.19,10.19,0,0,0,0,13.67a10.32,10.32,0,0,0,1.93,6,15.73,15.73,0,0,0,5.28,4.7A14,14,0,0,1,6.66,26c-.21.51-.41.93-.58,1.26a9.23,9.23,0,0,1-.69,1.09c-.3.4-.51.68-.66.84L4,30l-.66.74a2.4,2.4,0,0,0-.17.2L3,31.12l-.13.19a.5.5,0,0,0-.1.2.42.42,0,0,1,0,.21.28.28,0,0,0,0,.26v0a1.08,1.08,0,0,0,.37.62.84.84,0,0,0,.65.19,15.09,15.09,0,0,0,2.43-.47A23.37,23.37,0,0,0,16,27.17a27.9,27.9,0,0,0,3.1.18,24.87,24.87,0,0,0,9.61-1.83,17.21,17.21,0,0,0,7-5,10.66,10.66,0,0,0,2.57-6.87A10.66,10.66,0,0,0,35.71,6.81Z"/></g></g></svg>