<svg fill="white" xmlns="http://www.w3.org/2000/svg" viewBox="0 0 43.48 43.48"><title>Varlık 5</title><g id="katman_2" data-name="katman 2"><g id="katman_1-2" data-name="katman 1"><path d="M21.74,0A21.74,21.74,0,1,0,43.48,21.74,21.74,21.74,0,0,0,21.74,0Zm16,22.67h3.82a19.87,19.87,0,0,1-18.9,18.9V37.74a.93.93,0,1,0-1.87,0v3.82a19.87,19.87,0,0,1-18.9-18.9H5.74a.93.93,0,0,0,0-1.87H1.91a19.87,19.87,0,0,1,18.9-18.9V5.74a.93.93,0,0,0,1.87,0V1.91a19.87,19.87,0,0,1,18.9,18.9H37.74a.93.93,0,0,0,0,1.87Z"/><path d="M22.67,21.36V11.95a.93.93,0,0,0-1.87,0v9.79a.93.93,0,0,0,.27.65l9.17,9.33a.93.93,0,0,0,1.33-1.31h0Z"/></g></g></svg>