<svg fill="white" xmlns="http://www.w3.org/2000/svg" xmlns:xlink="http://www.w3.org/1999/xlink" viewBox="0 0 49.52 29.52"><defs><style>.cls-1{fill:none;}.cls-2{clip-path:url(#clip-path);}</style><clipPath id="clip-path" transform="translate(0 -0.08)"><rect class="cls-1" width="49.62" height="29.72"/></clipPath></defs><title>Varlık 3</title><g id="katman_2" data-name="katman 2"><g id="katman_1-2" data-name="katman 1"><g class="cls-2"><path d="M24.76.08C15.3.08,6.72,5.26.39,13.66A2,2,0,0,0,.39,16C6.72,24.42,15.3,29.6,24.76,29.6S42.8,24.42,49.13,16a2,2,0,0,0,0-2.34C42.8,5.26,34.22.08,24.76.08Zm.68,25.15a10.42,10.42,0,1,1,9.71-9.71,10.42,10.42,0,0,1-9.71,9.71Zm-.31-4.8a5.61,5.61,0,1,1,5.24-5.24,5.6,5.6,0,0,1-5.24,5.24Zm0,0" transform="translate(0 -0.08)"/></g></g></g></svg>